<svg xmlns="http://www.w3.org/2000/svg" width="190" height="190" viewBox="0 0 190 190"><defs><clipPath id="q357a"><path fill="#fff" d="M94 60h2v9h-2zm0 61h2v9h-2zM60 96v-2h9v2zm61 0v-2h9v2z"/></clipPath><clipPath id="q357b"><path fill="#fff" d="M77 96v-2h17V71h2v25z"/></clipPath><clipPath id="q357c"><path fill="#fff" d="M95.021 91.5a3.5 3.5 0 1 1 0 7 3.5 3.5 0 0 1 0-7z"/></clipPath></defs><g><g><path fill="#030303" d="M94 60h2v9h-2zm0 61h2v9h-2zM60 96v-2h9v2zm61 0v-2h9v2z"/><path fill="none" stroke="#fff" stroke-miterlimit="20" stroke-width="6" d="M94 60h2v9h-2zm0 61h2v9h-2zM60 96v-2h9v2zm61 0v-2h9v2z" clip-path="url(&quot;#q357a&quot;)"/></g><g><path fill="#030303" d="M77 96v-2h17V71h2v25z"/><path fill="none" stroke="#fff" stroke-miterlimit="20" stroke-width="6" d="M77 96v-2h17V71h2v25z" clip-path="url(&quot;#q357b&quot;)"/></g><g><path fill="#030303" d="M95.021 91.5a3.5 3.5 0 1 1 0 7 3.5 3.5 0 0 1 0-7z"/><path fill="none" stroke="#fff" stroke-miterlimit="20" stroke-width="6" d="M95.021 91.5a3.5 3.5 0 1 1 0 7 3.5 3.5 0 0 1 0-7z" clip-path="url(&quot;#q357c&quot;)"/></g></g></svg>