<svg xmlns="http://www.w3.org/2000/svg" width="178" height="178" viewBox="0 0 178 178"><defs><clipPath id="8hzla"><path fill="#fff" d="M67.285 110.744c-9.726-9.731-9.726-25.509 0-35.24C82.774 60.006 118 60 118 60s-.007 35.246-15.496 50.745c-9.726 9.73-25.494 9.73-35.22 0z"/></clipPath><clipPath id="8hzlb"><path fill="#fff" d="M62.937 127.6s-5.88-47.184 54.329-66.865"/></clipPath><clipPath id="8hzlc"><path fill="#fff" d="M68.81 103.352v-.735h-1.468V83.513h1.468v18.37h28.633v1.469zm8.81-16.165v-.735h-.734V72.49h1.468v13.226h24.962v1.47zM93.772 73.96v-.735h-.734v-6.613h1.468v5.878h15.418v1.47z"/></clipPath></defs><g><g><path fill="none" stroke="#fff" stroke-miterlimit="20" stroke-width="6" d="M67.285 110.744c-9.726-9.731-9.726-25.509 0-35.24C82.774 60.006 118 60 118 60v0s-.007 35.246-15.496 50.745c-9.726 9.73-25.494 9.73-35.22 0z" clip-path="url(&quot;#8hzla&quot;)"/></g><g><path fill="none" stroke="#fff" stroke-miterlimit="20" stroke-width="6" d="M62.937 127.6s-5.88-47.184 54.329-66.865" clip-path="url(&quot;#8hzlb&quot;)"/></g><g><path fill="none" stroke="#fff" stroke-miterlimit="20" stroke-width="6" d="M68.81 103.352v-.735h-1.468V83.513h1.468v18.37h28.633v1.469zm8.81-16.165v-.735h-.734V72.49h1.468v13.226h24.962v1.47zM93.772 73.96v-.735h-.734v-6.613h1.468v5.878h15.418v1.47z" clip-path="url(&quot;#8hzlc&quot;)"/></g></g></svg>