<svg xmlns="http://www.w3.org/2000/svg" width="180" height="180" viewBox="0 0 180 180"><defs><clipPath id="s6ppa"><path fill="#fff" d="M100.123 62.932l17.812 17.703a6.924 6.924 0 0 1 0 9.834l-27.213 27.046a6.978 6.978 0 0 1-3.592 1.906 7.005 7.005 0 0 1-2.88.583l-16.968-.155c-3.904-.035-7.099-3.21-7.134-7.09l-.156-16.865a6.858 6.858 0 0 1 2.61-5.469c.13-.153.268-.303.413-.447l27.212-27.046a7.028 7.028 0 0 1 9.896 0zM69.9 102.766a4.847 4.847 0 0 0 0 6.884 4.92 4.92 0 0 0 6.926 0 4.847 4.847 0 0 0 0-6.884 4.92 4.92 0 0 0-6.926 0z"/></clipPath><clipPath id="s6ppb"><path fill="#fff" d="M75.219 112.329s-11.196-10.084-11.196-31.294S68.921 56 71.02 56c2.1 0 5.948 4.172 6.298 21.558"/></clipPath></defs><g><g><path fill="none" stroke="#fff" stroke-miterlimit="20" stroke-width="6" d="M100.123 62.932l17.812 17.703a6.924 6.924 0 0 1 0 9.834l-27.213 27.046a6.978 6.978 0 0 1-3.592 1.906 7.005 7.005 0 0 1-2.88.583l-16.968-.155c-3.904-.035-7.099-3.21-7.134-7.09l-.156-16.865a6.858 6.858 0 0 1 2.61-5.469c.13-.153.268-.303.413-.447l27.212-27.046a7.028 7.028 0 0 1 9.896 0zM69.9 102.766a4.847 4.847 0 0 0 0 6.884 4.92 4.92 0 0 0 6.926 0 4.847 4.847 0 0 0 0-6.884 4.92 4.92 0 0 0-6.926 0z" clip-path="url(&quot;#s6ppa&quot;)"/></g><g><path fill="none" stroke="#fff" stroke-miterlimit="20" stroke-width="6" d="M75.219 112.329v0s-11.196-10.084-11.196-31.294S68.921 56 71.02 56c2.1 0 5.948 4.172 6.298 21.558" clip-path="url(&quot;#s6ppb&quot;)"/></g></g></svg>